<?xml version="1.0" encoding="UTF-8"?>
<svg id="Layer_2" data-name="Layer 2" xmlns="http://www.w3.org/2000/svg" viewBox="0 0 187.27 217.63">
  <defs>
    <style>
      .cls-1 {
        fill: #fff;
      }
    </style>
  </defs>
  <g id="Layer_1-2" data-name="Layer 1">
    <g>
      <path class="cls-1" d="M183.14,172.02c-9.52-10.09-24.86-7.21-37.77-2.1-5.07,1.9-9.83,4.2-13.8,6.28-13.01,6.81-25.75,18.57-37.96,24.53-.43.21-.85.4-1.28.58-7.81,2.71-14.51.39-9.31-9.65,6.96-7.05,21.95-11.7,34.3-25.62,2.3-2.59,3.81-5.84,4.17-9.28.46-4.4-1.16-8.05-9.1-16.34-4.45-4.65-7.51-10.53-8.42-16.9-1.99-14.04,6.23-25.26,19.82-30.85,2.14-.79,4.39-1.45,6.75-1.97,8.01-1.73,16.68-1.01,24.4-4.25.94-.33,1.86-.7,2.77-1.14,20.81-10.1,13.92-34.91-8.41-37.12-7.79-.77-15.14.44-21.82,3.16-29.66,10.88-46.73,51.27-30.9,81.3,3.88,7.35,19.04,21.42,17.9,28.77-1.27,8.17-35.51,26.11-42.72,35.47-4.4,5.71-6.81,12.04-.67,17.57,4.18,3.75,8.29,3.84,12.24,2.06,8.52-2.71,16.35-15.02,22.55-19.61,2.35-1.74,4.69-3.06,7.02-4.04,22.11-7.86,43.36,14.14,62.36,6,.76-.26,1.52-.56,2.28-.92,9.73-4.58,13.16-17.88,5.59-25.91Z"/>
      <path class="cls-1" d="M91.36,168.34c.29-.1.58-.21.87-.33,1.49-.63,2.89-1.53,3.89-2.79,2.6-3.28,1.15-9.03.19-12.72-1.2-4.6-3.18-8.95-5.28-13.2-4.2-8.49-9.29-16.92-10.71-26.45-1.57-9.96-1.05-20.28,1.61-30.01,2-7.31,5.8-14.01,10.69-19.78,3.21-3.78,6.65-7.44,10.72-10.3,3.65-2.56,6.53-5.64,10.63-7.7,7.84-3.94,17.18-5.31,24.48-10.3,6.72-4.59,11.11-15.06,8.43-22.91-1.1-3.21-3.55-5.85-6.43-7.64-2.89-1.79-6.19-2.79-9.52-3.46-3.6-.72-7.33-1.07-10.95-.41-8,1.46-11.97,7.77-14.23,15.05-2.59,8.35-4.35,16.95-7.36,25.16-4.72,12.85-13.32,25.63-28.33,26.02-9.9.26-20.15-.47-29.76-2.93-9.51-2.43-18.69-6.63-28.61-7.09-3.57-.17-7.63.41-9.76,3.29-.99,1.35-1.42,3.03-1.66,4.69-1.04,7.31,1.42,15.14,6.78,20.22,7.72,7.32,17.6,6.07,26.65,2.16,10.29-4.46,19.9-10.08,30.49-13.93,2.03-.74,4.11-1.44,6.26-1.49,2.15-.05,4.43.66,5.8,2.32,2.14,2.59,1.46,6.42.49,9.63-2.86,9.52-6.02,18.56-7.85,28.37-1.11,5.95-1.95,11.96-2.58,17.98-.62,5.99-.04,12.03.85,18.01.6,4.05,1.48,8.13,3.48,11.71,1.18,2.1,2.74,4,4.64,5.49,4.43,3.46,10.68,5.2,16.1,3.34Z"/>
    </g>
  </g>
</svg>