<?xml version="1.0" encoding="UTF-8"?>
<svg id="Layer_2" data-name="Layer 2" xmlns="http://www.w3.org/2000/svg" xmlns:xlink="http://www.w3.org/1999/xlink" viewBox="0 0 1647 657.08">
  <defs>
    <style>
      .cls-1 {
        letter-spacing: -.06em;
      }

      .cls-2, .cls-3, .cls-4, .cls-5 {
        font-family: Pretendard-Light-KSCpc-EUC-H, Pretendard;
        font-size: 14px;
        font-weight: 300;
      }

      .cls-6, .cls-3, .cls-5 {
        fill: #fff;
      }

      .cls-3, .cls-4, .cls-7 {
        letter-spacing: -.04em;
      }

      .cls-8 {
        fill: none;
      }

      .cls-9 {
        letter-spacing: -.05em;
      }

      .cls-10 {
        letter-spacing: -.05em;
      }

      .cls-11 {
        letter-spacing: -.05em;
      }

      .cls-12 {
        clip-path: url(#clippath);
      }

      .cls-13 {
        letter-spacing: -.05em;
      }
    </style>
    <clipPath id="clippath">
      <rect class="cls-8" x="0" y="0" width="1647" height="657.08"/>
    </clipPath>
  </defs>
  <g id="Layer_1-2" data-name="Layer 1">
    <g>
      <g class="cls-12">
        <path class="cls-6" d="M294.56,344.7c.51-29.74-27.32-48.28-54.77-59.8-10.63-4.68-21.37-8.28-30.56-11.04-30.15-9.05-67.3-10.09-94.95-19.24-.97-.32-1.91-.67-2.83-1.03-16.02-7.54-22.83-21.12.18-28.74,21.23-.4,51.18,14.93,90.97,12.09,7.41-.53,14.58-3.24,20.29-7.99,7.29-6.06,10.27-14.08,10.52-38.7.14-13.8,4.25-27.39,12.41-38.52,17.97-24.51,47.39-29.4,76.6-17.62,4.46,1.99,8.91,4.35,13.3,7.1,14.88,9.33,27.09,23.44,43.78,30.02,1.93.9,3.91,1.72,5.97,2.4,47.03,15.68,73.62-32.68,42.69-69.52-10.79-12.85-23.89-22-38.2-27.83-61.76-27.74-148.44,8.62-169.13,78.38-5.07,17.08-2.89,61.36-15.64,70.92-14.18,10.64-93.55-13.14-118.63-9.59-15.29,2.16-28.48,8.26-27.33,25.94.78,12.02,6.96,18.31,15.69,21.49,17.12,8.6,47.56,1.46,63.96,3.7,6.21.85,11.78,2.33,16.82,4.33,45.67,21.07,45.32,86.62,86.63,102.59,1.56.74,3.17,1.41,4.86,2,21.77,7.54,46.96-7.7,47.36-31.36Z"/>
        <path class="cls-6" d="M510.16-214.36c-5.48,29.23,18.86,52.17,44,68.12,9.7,6.39,19.69,11.74,28.28,16,28.21,13.97,64.66,21.21,90.4,34.85.9.48,1.77.98,2.62,1.49,14.54,10.12,18.97,24.64-4.98,28.31-21-3.16-47.96-23.28-87.67-27.13-7.4-.72-14.92.76-21.35,4.49-8.2,4.75-12.48,12.16-16.84,36.39-2.44,13.58-8.77,26.29-18.68,35.9-21.82,21.16-51.64,21.06-78.47,4.56-4.07-2.71-8.06-5.77-11.93-9.22-13.11-11.69-22.79-27.65-38.14-36.92-1.75-1.21-3.57-2.35-5.48-3.37-43.74-23.33-78.05,19.91-53.72,61.4,8.49,14.47,19.87,25.68,33.01,33.83,56.25,37.68,147.79,16.32,179.86-48.99,7.85-15.99,13.11-60.01,27.28-67.31,15.76-8.12,90.03,28.6,115.36,29.3,15.43.42,29.46-3.38,31.28-21,1.24-11.98-3.8-19.22-11.88-23.81-15.44-11.34-46.65-9.4-62.44-14.35-5.98-1.88-11.22-4.27-15.86-7.08-41.5-28.41-30.19-92.98-68.25-115.64-1.41-.99-2.89-1.93-4.46-2.79-20.2-11.08-47.58-.26-51.94,22.99Z"/>
        <path class="cls-6" d="M697.52,907.1c-15.78-25.21-49.22-25.58-78.52-20.27-11.46,1.87-22.43,4.71-31.64,7.4-30.21,8.85-61.92,28.23-90.09,35.64-.98.26-1.96.48-2.93.68-17.54,2.41-30.65-5.26-15.52-24.19,17.58-11.91,51.05-15.39,82.85-39.46,5.93-4.48,10.45-10.67,12.66-17.76,2.81-9.06.94-17.4-12.28-38.17-7.41-11.64-11.37-25.28-10.6-39.06,1.7-30.35,23.7-50.48,54.61-56.53,4.83-.76,9.84-1.21,15.02-1.3,17.56-.29,35.49,4.88,53.06,1.3,2.11-.3,4.21-.69,6.31-1.24,47.97-12.49,43.9-67.54-2.11-81.55-16.05-4.89-32.02-5.42-47.2-2.5-66.9,10.42-119.73,88.16-99.05,157.91,5.07,17.08,31.03,53.01,25.56,67.98-6.09,16.65-85.59,39.99-104.68,56.64-11.63,10.15-19.37,22.46-8.77,36.64,7.21,9.65,15.82,11.56,24.87,9.46,19.04-2.12,40.67-24.7,55.64-31.76,5.67-2.67,11.14-4.47,16.46-5.54,49.77-7.24,85.22,47.9,128.56,38.78,1.71-.23,3.43-.54,5.17-.97,22.36-5.55,35.17-32.06,22.61-52.11Z"/>
        <path class="cls-6" d="M606.61,568.96c25.04,16.05,55.43,2.1,79.65-15.21,9.56-6.59,18.27-13.84,25.45-20.21,23.53-20.9,43.93-51.97,66.23-70.71.78-.65,1.57-1.27,2.36-1.87,14.83-9.68,29.96-8.34,24.37,15.24-10.81,18.28-39.58,35.72-58.06,71.07-3.44,6.59-4.89,14.11-3.85,21.47,1.33,9.39,6.59,16.14,27.41,29.27,11.67,7.36,21.08,18,26.26,30.79,11.43,28.16.14,55.77-25.23,74.45-4.04,2.75-8.38,5.3-13.03,7.59-15.75,7.76-34.18,10.74-48.53,21.49-1.78,1.17-3.51,2.42-5.18,3.82-38.04,31.79-10.85,79.82,36.74,72.84,16.6-2.44,31.26-8.78,43.74-17.9,56.04-38,70.6-130.85,22.1-185.09-11.88-13.28-50.7-34.68-52.15-50.55-1.61-17.66,60.31-72.71,70.45-95.92,6.18-14.14,7.93-28.58-7.72-36.88-10.64-5.64-19.24-3.69-26.53,2.07-16.31,10.05-26.22,39.71-36.74,52.48-3.98,4.84-8.17,8.8-12.51,12.04-41.91,27.8-97.51-6.91-132.8,19.86-1.45.94-2.87,1.96-4.26,3.09-17.85,14.57-18.1,44.01,1.82,56.78Z"/>
        <path class="cls-6" d="M1703.65,131.09c-13.25,35.13,4.29,77.59,24.51,111.38,7.73,13.35,16.03,25.49,23.27,35.5,23.75,32.82,57.36,61.18,78.78,92.29.75,1.09,1.46,2.19,2.15,3.29,11.45,20.7,11.85,41.89-12.52,34.19-19.63-15.02-40.51-55.19-78.21-80.85-7.02-4.78-14.76-6.77-22.04-5.27-9.29,1.91-15.47,9.31-26.28,38.53-6.06,16.38-15.67,29.6-27.94,36.93-27.01,16.15-56.09.51-77.81-34.89-3.24-5.63-6.3-11.69-9.14-18.19-9.63-22-14.76-47.77-27.23-67.8-1.38-2.48-2.85-4.9-4.44-7.22-36.37-53.06-81.55-14.72-69.03,51.84,4.37,23.22,12.44,43.7,23.06,61.12,44.7,78.21,139.8,98.06,188.76,29.88,11.99-16.7,29.03-71.16,44.83-73.27,17.58-2.35,80.12,83.99,104.64,98.06,14.94,8.58,29.67,10.93,36.21-11.02,4.45-14.92,1.49-26.95-5.15-37.12-11.99-22.76-42.98-36.47-57.04-51.11-5.33-5.55-9.8-11.38-13.56-17.44-32.81-58.49-4.31-136.51-35.32-185.75-1.11-2.02-2.3-4.01-3.6-5.94-16.72-24.9-46.36-25.09-56.91,2.86Z"/>
        <path class="cls-6" d="M1246,5.54c-29.54,10.25-54.07-13.12-71.5-38.39-6.97-9.71-12.9-19.89-17.64-28.7-15.56-28.92-24.66-67.85-39.78-94.1-.53-.92-1.08-1.8-1.64-2.66-11-14.48-26.01-17.24-28.62,9.57,4.21,22.57,25.99,49.24,31.78,92.23,1.08,8.01-.07,16.47-3.57,24.06-4.46,9.69-11.81,15.46-36.3,23.75-13.73,4.65-26.39,13.43-35.72,25.69-20.54,27-19.04,59.69-.95,86.73,2.95,4.07,6.27,8,9.96,11.74,12.53,12.68,29.25,20.99,39.43,36.48,1.32,1.75,2.56,3.57,3.69,5.52,25.84,44.6-16.62,88.5-60.06,67.82-15.15-7.21-27.11-18.07-36.03-31.3-41.05-56.24-23.59-159.74,41.47-204.38,15.93-10.93,60.55-23.08,67.33-39.68,7.53-18.46-33.39-94.61-35.29-122.28-1.16-16.86,2.06-32.81,19.93-37.36,12.15-3.09,19.77,1.38,24.83,9.58,12.29,15.29,11.77,49.8,17.57,66.4,2.19,6.29,4.88,11.69,7.96,16.37,30.91,41.4,96.2,19.64,121.09,58.1,1.08,1.41,2.1,2.89,3.05,4.49,12.24,20.55,2.51,52.15-20.99,60.31Z"/>
        <path class="cls-6" d="M125.44,618.39c2.11,25.88,10.33,51.28,24.04,73.33,13.69,22.02,34.08,41.45,59.44,46.82,25.36,5.37,55.37-7.29,63.39-31.95,5.73-17.63-.6-37.52-12.33-51.88-11.73-14.36-28.15-24.06-44.8-32.22-9.38-4.6-19.14-8.94-26.66-16.19-12.56-12.12-16.92-30.77-15.91-48.2,1.09-18.95,8.12-37.86,21.32-51.5,13.2-13.64,32.83-21.41,51.58-18.45,21.31,3.37,38.25,19.19,53.09,34.85,13.99,14.76,28.01,31.25,31.18,51.34,2.16,13.69-.98,27.59-3.51,41.22-4.57,24.63-7.19,49.73-5.84,74.74,3.61,26.94,9.75,56.55,32.05,74.31,50.95,37.67,139.28-10.14,134.39-69.83-3.03-17.62-17.04-30.99-31.34-40.48-17.45-11.59-37.46-18.92-54.89-30.54-16.8-11.19-30.96-26.3-41.05-43.79-2.24-3.88-4.32-8.03-4.56-12.5-.56-10.59,9.44-19.04,19.67-21.83,19.71-5.37,40.12,3.53,60.3,6.68,24.29,3.79,49.84-1.09,71.02-13.57,9.4-5.54,18.12-12.73,23.51-22.21,7.04-12.39,7.7-27.45,5.83-41.58-2.69-20.35-10.31-40.04-22.02-56.9-8.7-12.52-21.77-24.35-36.97-23.18-9.54.73-17.99,6.57-24.62,13.48-19.75,20.59-26.74,50.75-45.84,71.94-18.26,20.25-47.24,30.22-74.09,25.48-32.07-5.66-58.57-30.13-90.77-35.03-14.14-2.15-28.83-.16-42,5.36-11.87,4.98-25.07,11.91-33.57,21.63-21.2,24.24-35.13,54.8-39.28,86.75-1.46,11.23-1.7,22.62-.78,33.9Z"/>
        <path class="cls-6" d="M216.68,2.42c-2.11-25.88-10.33-51.28-24.04-73.33-13.69-22.02-34.08-41.45-59.44-46.82-25.36-5.37-55.37,7.29-63.39,31.95-5.73,17.63.6,37.52,12.33,51.88,11.73,14.36,28.15,24.06,44.8,32.22,9.38,4.6,19.14,8.94,26.66,16.19,12.56,12.12,16.92,30.77,15.91,48.2-1.09,18.95-8.12,37.86-21.32,51.5-13.2,13.64-32.83,21.41-51.58,18.45-21.31-3.37-38.25-19.19-53.09-34.85-13.99-14.76-28.01-31.25-31.18-51.34-2.16-13.69.98-27.59,3.51-41.22,4.57-24.63,7.19-49.73,5.84-74.74-3.61-26.94-9.75-56.55-32.05-74.31-50.95-37.67-139.28,10.14-134.39,69.83,3.03,17.62,17.04,30.99,31.34,40.48,17.45,11.59,37.46,18.92,54.89,30.54,16.8,11.19,30.96,26.3,41.05,43.79,2.24,3.88,4.32,8.03,4.56,12.5.56,10.59-9.44,19.04-19.67,21.83-19.71,5.37-40.12-3.53-60.3-6.68-24.29-3.79-49.84,1.09-71.02,13.57-9.4,5.54-18.12,12.73-23.51,22.21-7.04,12.39-7.7,27.45-5.83,41.58,2.69,20.35,10.31,40.04,22.02,56.9,8.7,12.52,21.77,24.35,36.97,23.18,9.54-.73,17.99-6.57,24.62-13.48,19.75-20.59,26.74-50.75,45.84-71.94,18.26-20.25,47.24-30.22,74.09-25.48,32.07,5.66,58.57,30.13,90.77,35.03,14.14,2.15,28.83.16,42-5.36,11.87-4.98,25.07-11.91,33.57-21.63,21.2-24.24,35.13-54.8,39.28-86.75,1.46-11.23,1.7-22.62.78-33.9Z"/>
        <path class="cls-6" d="M1016.77-270.05c-17.52-19.17-39.57-34.21-63.92-43.25-24.31-9.02-52.33-11.9-75.67-.61-23.34,11.29-39.31,39.68-30.55,64.08,6.27,17.45,23.46,29.29,41.52,33.46,18.07,4.17,36.99,1.77,55.15-1.97,10.23-2.11,20.61-4.65,30.99-3.52,17.36,1.89,32.22,13.96,42.1,28.35,10.74,15.64,16.77,34.9,14.69,53.77-2.08,18.86-12.84,37.03-29.47,46.17-18.91,10.39-41.99,8.26-63.32,4.97-20.11-3.1-41.28-7.55-56.09-21.49-10.1-9.5-16.13-22.41-22.47-34.73-11.47-22.27-24.77-43.71-41.16-62.66-19.36-19.09-42.34-38.73-70.85-39.11-63.34,1.43-103.89,93.32-63.47,137.51,13.18,12.07,32.45,14.06,49.56,12.81,20.9-1.53,41.2-7.98,62.1-9.48,20.13-1.44,40.59,1.83,59.27,9.48,4.15,1.7,8.34,3.7,11.26,7.09,6.93,8.02,4.2,20.84-2.18,29.3-12.29,16.31-33.87,21.78-51.76,31.65-21.52,11.88-38.73,31.39-47.83,54.23-4.04,10.13-6.53,21.16-4.98,31.96,2.03,14.1,10.73,26.42,20.86,36.44,14.59,14.44,32.67,25.34,52.25,31.49,14.54,4.57,32.12,5.91,43.42-4.32,7.09-6.42,10.2-16.21,11.2-25.73,3-28.37-9.94-56.49-7.82-84.94,2.03-27.19,18.84-52.82,42.96-65.52,28.82-15.17,64.75-12.05,93.21-27.9,12.5-6.96,22.89-17.53,29.92-29.96,6.34-11.21,12.52-24.77,13.29-37.66,1.91-32.14-5.79-64.84-22.08-92.63-5.73-9.77-12.51-18.92-20.15-27.28Z"/>
        <path class="cls-6" d="M1074.37,637c25.21-6.21,48.97-18.37,68.56-35.43,19.55-17.02,35.49-40.25,36.74-66.15,1.26-25.9-16.03-53.5-41.65-57.49-18.32-2.85-36.94,6.58-49.25,20.45-12.31,13.87-19.26,31.63-24.66,49.37-3.04,9.99-5.78,20.32-11.74,28.9-9.97,14.33-27.68,21.61-45.04,23.4-18.88,1.95-38.67-1.98-54.24-12.83-15.57-10.85-26.37-29-26.44-47.97-.08-21.57,12.85-40.82,25.94-57.97,12.34-16.17,26.38-32.63,45.71-38.97,13.17-4.32,27.39-3.44,41.25-3.11,25.04.59,50.24-.83,74.72-6.16,26.02-7.86,54.27-18.64,68.24-43.49,29.06-56.3-32.22-135.88-90.37-121.53-16.91,5.8-27.87,21.76-34.96,37.39-8.66,19.08-12.7,40-21.39,59.06-8.37,18.37-21.03,34.76-36.68,47.51-3.47,2.83-7.24,5.55-11.62,6.5-10.36,2.24-20.3-6.28-24.69-15.94-8.44-18.6-2.92-40.16-3.03-60.59-.13-24.58-9.03-49.03-24.73-67.95-6.96-8.39-15.46-15.86-25.68-19.67-13.35-4.97-28.33-3.22-41.98.88-19.66,5.9-37.88,16.56-52.66,30.81-10.97,10.58-20.56,25.38-16.99,40.19,2.24,9.3,9.36,16.71,17.23,22.15,23.48,16.21,54.36,18.3,78.33,33.78,22.9,14.79,37.37,41.82,36.97,69.08-.47,32.57-20.41,62.63-20.11,95.19.13,14.3,4.44,28.48,11.99,40.61,6.81,10.93,15.75,22.85,26.71,29.69,27.31,17.06,59.7,25.94,91.91,24.94,11.32-.35,22.6-1.93,33.59-4.63Z"/>
        <path class="cls-6" d="M553.5,246.58c.96-5.28-3.32-7.24-7.04-9.36-28.32-16.11-82.76-34.21-115.12-33.25-99.3,2.97-122.66,94.25-66.28,164.98,66.88,83.9,124.11-52.22,161.48-92.88,30.57-33.26,25.79,8.47,23.33,31-3.61,33.04-14.75,64.69-10.03,98.52,7.77,55.77,62.77,38.7,97.77,19.18,117.18-65.36,177.91-223.59,90.01-337.83-41.98-54.56-128.69-65.14-170.42-6.51-31.72,44.56,1.32,56.38,20.79,89.22,16.94,28.58-12.41,36.76-2.04,64.31,12.63,33.54,69.7,18.79,55.82-22.44-9.88-29.37-57.9-39.75-37.4-77.43,34.66-63.71,133.74-30.2,155.83,30.73,26.46,72.96-.95,153.64-61.31,200.33-46.49,35.96-95.9,48.77-111.37-22.16-7.09-32.51-3.82-112.84-60.42-75.22-23.74,15.78-66.35,78.73-86.85,83.14-15.9,3.42-22.04-25.12-22.18-36.78-.9-76.95,89.6-78.71,145.43-67.57Z"/>
        <path class="cls-6" d="M1427.19,152.74c-.96,4.77,3.51,6.57,7.41,8.52,29.6,14.8,86.39,31.62,120.04,31.01,103.28-1.87,126.84-84.23,67.61-148.65-70.26-76.42-128.7,46.2-167.24,82.67-31.53,29.83-26.9-7.87-24.53-28.23,3.48-29.85,14.81-58.38,9.63-89.01-8.54-50.5-65.62-35.51-101.87-18.15-121.37,58.14-183.26,200.73-90.88,304.76,44.12,49.68,134.41,59.96,177.35,7.28,32.63-40.04-1.83-50.99-22.36-80.85-17.86-25.98,12.61-33.14,1.59-58.14-13.41-30.44-72.67-17.56-57.89,19.84,10.52,26.64,60.56,36.42,39.55,70.33-35.53,57.33-138.89,26.22-162.38-29.07-28.12-66.19-.27-138.93,62.15-180.65,48.08-32.14,99.37-43.31,116.05,20.95,7.64,29.46,4.9,102.07,63.48,68.51,24.57-14.08,68.39-70.65,89.67-74.47,16.51-2.97,23.14,22.9,23.38,33.44,1.57,69.6-92.57,70.45-150.75,59.91Z"/>
        <path class="cls-6" d="M1403.89,579.76c5.35-.52,6.06-5.17,7.08-9.33,7.76-31.65,10.3-88.96.54-119.82-29.98-94.71-124.17-92.25-176.81-18.7-62.45,87.25,84.13,105.13,133.46,129.97,40.35,20.32-1.1,27.12-23.45,30.91-32.77,5.56-66.26,3.49-97.52,17.26-51.53,22.71-20.08,70.96,8.25,99.29,94.88,94.87,263.68,110.07,349.57-5.69,41.02-55.28,27.51-141.58-40.29-165.71-51.53-18.34-53.87,16.67-80.15,44.37-22.86,24.1-38.75-1.89-62.42,15.61-28.82,21.31.96,72.18,36.84,47.57,25.56-17.53,22.42-66.56,64.27-57.13,70.76,15.94,65.59,120.4,13,158.3-62.96,45.38-148.06,41.05-209.45-4.26-47.29-34.9-73.1-78.93-9.1-113.19,29.34-15.7,107.51-34.5,55.85-78.67-21.67-18.53-93.86-42.33-103.7-60.84-7.63-14.36,18.14-28.07,29.32-31.39,73.78-21.89,100.19,64.69,104.72,121.44Z"/>
        <path class="cls-6" d="M-69.6,473.26c-4.58-2.81-3.17-7.3-2.27-11.49,6.9-31.84,29.75-84.47,52.06-107.93,68.47-71.98,152.05-28.47,167.11,60.72,17.87,105.8-121.71,57.6-176.93,58.3-45.17.57-10.9,24.86,7.52,38.06,27.02,19.36,58.02,32.19,80.08,58.27,36.35,43-13.06,72.58-50.95,85.62-126.87,43.66-285.24-16.69-311.68-158.38-12.63-67.67,37.35-139.31,108.87-131.27,54.36,6.11,41.11,38.6,52.58,75.02,9.98,31.69,35.66,15.29,49.26,41.4,16.56,31.79-32.51,64.45-53.97,26.6-15.28-26.96,9.03-69.65-32.71-79.53-70.58-16.7-111.74,79.45-81.09,136.57,36.69,68.39,115.07,101.81,190.12,88.01,57.81-10.63,100.31-38.88,57.81-97.74-19.48-26.97-81.49-78.15-15.7-95.19,27.6-7.15,102.92,3.11,119.88-9.21,13.16-9.56-4-33.18-12.59-41.06-56.71-52.02-118.41,14.21-147.37,63.23Z"/>
      </g>
      <text class="cls-5" transform="translate(631.13 153.77)"><tspan class="cls-7" x="0" y="0">pho</tspan><tspan class="cls-9" x="21.65" y="0">t</tspan><tspan class="cls-7" x="25.61" y="0">og</tspan><tspan class="cls-13" x="40.17" y="0">r</tspan><tspan class="cls-10" x="44.21" y="0">aphs</tspan></text>
      <text class="cls-3" transform="translate(964.62 546.38)"><tspan x="0" y="0">swimming</tspan></text>
      <text class="cls-4" transform="translate(1025.1853 184.3996)"><tspan x="0" y="0">vibecode</tspan></text>
      <text class="cls-2" transform="translate(855.77 312.99)"><tspan class="cls-7" x="0" y="0">edi</tspan><tspan class="cls-9" x="16.9" y="0">t</tspan><tspan class="cls-7" x="20.85" y="0">orial</tspan></text>
      <text class="cls-2" transform="translate(444.4 469.6)"><tspan class="cls-7" x="0" y="0">b</tspan><tspan class="cls-11" x="7.52" y="0">r</tspan><tspan class="cls-7" x="11.56" y="0">anding</tspan></text>
      <text class="cls-2" transform="translate(1319.8811 317.8139)"><tspan class="cls-7" x="0" y="0">illust</tspan><tspan class="cls-13" x="24.15" y="0">r</tspan><tspan class="cls-10" x="28.19" y="0">ation</tspan></text>
      <text class="cls-5" transform="translate(262.04 170.04)"><tspan class="cls-7" x="0" y="0">imaginati</tspan><tspan class="cls-1" x="49.76" y="0">v</tspan><tspan class="cls-7" x="56.08" y="0">e</tspan></text>
    </g>
  </g>
</svg>